<svg width="48" height="48" viewBox="0 0 48 48" fill="none" xmlns="http://www.w3.org/2000/svg">
<circle cx="24" cy="24" r="24" fill="white"/>
<path fill-rule="evenodd" clip-rule="evenodd" d="M27.3845 18.6155H20.6152C19.5107 18.6155 18.6152 19.5109 18.6152 20.6155V25.6504L21.178 25.0524C22.0719 24.8438 22.9868 24.7385 23.9048 24.7385H24.0957C25.0137 24.7385 25.9286 24.8438 26.8225 25.0524L29.3845 25.6502V20.6155C29.3845 19.5109 28.489 18.6155 27.3845 18.6155ZM16.6152 27.3847C16.6152 27.9854 16.7476 28.5551 16.9849 29.0664V29.5385H16.9844V30.6462H17.3545V31.0153H18.9341C19.4452 31.2524 20.0148 31.3847 20.6152 31.3847H27.3845C27.9849 31.3847 28.5545 31.2524 29.0656 31.0153H30.6468V30.6462H31.0151V29.9077H31.0156V29.0647C31.2524 28.5539 31.3845 27.9847 31.3845 27.3847V20.6155C31.3845 18.4063 29.5936 16.6155 27.3845 16.6155H20.6152C18.4061 16.6155 16.6152 18.4063 16.6152 20.6155V27.3847ZM20.6434 21.986C21.385 21.986 21.9861 21.3849 21.9861 20.6433C21.9861 19.9018 21.385 19.3007 20.6434 19.3007C19.9019 19.3007 19.3008 19.9018 19.3008 20.6433C19.3008 21.3849 19.9019 21.986 20.6434 21.986Z" fill="#CDCDCD"/>
</svg>
